<svg width="1440" height="1195" viewBox="-10 -10 1440 1195" fill="none" xmlns="http://www.w3.org/2000/svg">
<path d="M1025.12 0C1032.52 3.60794 1052.74 10.1444 1061.21 13.1289L1131.88 38.0186C1200.66 62.2558 1271.59 88.4587 1340.49 111.568C1348.78 101.2 1357.47 94.713 1371.1 93.1221C1382.79 91.6879 1394.57 95.0232 1403.78 102.376C1412.51 109.492 1418 119.821 1419.03 131.033C1419.97 142.077 1416.48 153.042 1409.32 161.506C1401.97 170.197 1391.41 175.525 1380.05 176.265C1368.1 177.101 1357.03 173.986 1347.92 166.007C1339.38 158.538 1334.22 147.933 1333.63 136.605C1333.47 134.092 1333.66 130.802 1334 128.315L1131.92 57.0039C1097.84 44.9911 1060.59 30.9229 1026.48 19.918L849.622 129.452C824.28 145.158 797.53 162.437 771.979 177.527C780.653 182.057 789.251 186.737 797.766 191.565C812.548 189.297 827.663 188.338 842.521 186.517C846.314 194.903 852.866 210.575 856.936 218.222L1062.64 164.364L1122.92 148.446C1132.82 145.825 1148.49 143.348 1156 137.253L1157.2 137.083C1161.76 141.641 1179.62 169.191 1183.41 175.407C1241.78 271.005 1290.73 388.605 1322.92 495.668C1277.9 648.338 1263.86 827.733 1301.21 983.235C1249.16 1014.54 1195.77 1090.21 1168.98 1143.51C1164.42 1152.59 1158.31 1163.64 1154.71 1173.27C1154.51 1173.79 1154.55 1174.42 1154.55 1175H1140.22C1132.56 1173.3 1120.11 1172.02 1112.04 1171.01L1064.97 1165.17C1010.95 1158.46 956.884 1152.14 902.774 1146.23C776.659 1132.23 650.286 1120.63 523.73 1111.42C478.881 1108.17 434.001 1105.37 389.096 1103.01C358.093 1101.39 325.573 1099.68 294.621 1099.42C298.989 1012.62 298.626 925.644 293.532 838.881C290.689 838.659 287.703 838.243 285.261 836.648C278.374 832.156 275.654 819.325 273.759 811.769C263.574 771.187 246.967 648.749 252.456 610.086C253.158 605.147 254.393 601.37 256.963 597.096C258.877 596.025 261.203 594.97 263.203 593.998C260.191 575.611 254.868 552.402 250.584 534.101C238.373 481.925 223.778 429.09 203.007 379.64C223.557 374.87 244.621 370.666 265.316 365.953C331.248 350.804 397.024 334.986 462.634 318.501C458.552 307.799 454.09 297.273 450.192 286.473C462.947 279.602 476.447 273.936 489.753 268.211C495.139 255.662 499.331 247.406 506.06 235.483L85.6553 168.769C84.548 174.442 83.1844 178.963 80.3389 184.006C74.8086 193.781 65.6008 200.94 54.7637 203.894C43.4656 207.014 31.3901 205.507 21.2061 199.706C8.13311 192.153 3.71937 182.521 0 168.829V158.447C0.678234 155.889 1.40668 153.131 2.26562 150.639C5.98406 139.714 13.9913 130.775 24.4434 125.88C35.0714 120.89 47.2597 120.383 58.2656 124.473C71.2613 129.335 78.2044 137.996 83.7041 150.197C97.1677 153.062 116.008 155.466 129.908 157.675L220.106 171.986L516.935 219.13C579.045 134.931 662.059 131.105 753.016 168.587C762.411 162.012 774.379 155 784.238 148.89L839.061 114.925L1024.35 0H1025.12ZM1137.74 163.077C924.13 219.671 710.16 274.891 495.844 328.733C435.816 343.768 375.692 358.416 315.476 372.678C287.524 379.263 254.735 385.684 227.686 392.765C248.092 446.553 263.843 508.28 275.574 564.496C311.293 735.674 319.718 907.613 313.379 1081.87L344.169 1083.02C524.331 1091.81 704.176 1106.18 883.451 1126.11C937.568 1131.96 991.65 1138.18 1045.69 1144.77C1071.64 1147.94 1103.75 1152.96 1129.21 1155.13C1111.23 1095.37 1099.7 1021.72 1093.58 959.431C1074.12 761.275 1084.99 554.011 1109.76 356.681C1116.63 301.922 1124.56 247.301 1133.55 192.851C1134.03 189.871 1138.71 164.391 1137.74 163.077ZM1156.27 166.537C1153.45 177.386 1150.04 202.479 1148.19 214.014C1142.84 247.389 1137.89 280.826 1133.32 314.318C1103.88 530.361 1089.77 758.628 1113.34 976.062C1118.97 1027.98 1130.57 1099.27 1146.1 1148.94C1179.49 1083.11 1221.17 1019.84 1280.93 974.993C1262.08 894.365 1258.68 809.509 1264.08 727.093C1264.45 721.436 1264.92 715.585 1264.9 709.929C1260.87 732.978 1253.09 773.49 1234.64 789.274C1228.11 794.862 1221.95 795.271 1213.93 794.48C1211.07 812.539 1202.75 866.63 1175.29 854.263C1154.22 844.773 1142.69 795.576 1138.91 774.987C1126.7 708.993 1129.93 640.292 1141.75 574.498C1144.54 558.911 1148.02 541.836 1153.1 527.54C1158.83 511.431 1173.18 483.619 1194.1 495.357C1209.32 503.893 1217.69 533.489 1222.19 548.897C1230.19 549.291 1237.91 549.232 1244.1 555.032C1263.99 573.667 1266.5 618.355 1268.2 643.613C1268.18 649.713 1268.51 665.314 1267.87 670.634L1268.61 676.785C1268.84 673.027 1269.69 668.355 1270.01 664.062C1278.31 604.033 1287.63 554.184 1304.19 495.715C1297.57 472.484 1286.2 440.808 1277.81 418.07C1246.28 332.747 1207.05 242.313 1156.27 166.537ZM1072.09 1083.67C1077.98 1083.26 1083.87 1084.4 1089.17 1086.97C1110.17 1097.15 1115.42 1125.39 1087.67 1132.06C1049.86 1133.51 1037 1089.47 1072.09 1083.67ZM1062.88 1096.97C1053.95 1112.63 1072.42 1123.54 1086.25 1123.72L1086.71 1122.56C1084.62 1119.26 1065.53 1098.4 1062.88 1096.97ZM1071.65 1092.3C1075.25 1096.66 1091.46 1114.92 1095.29 1117.89L1096.63 1117.75C1101.59 1101.34 1086 1091.89 1071.65 1092.3ZM350.213 1017.77C380.099 1016.61 380.854 1064.82 348.04 1073.14C314.931 1073.97 317.617 1023.87 350.213 1017.77ZM1008.7 827.332C1008.35 831.893 1006.08 838.119 1005.04 842.874C992.197 901.305 989.874 969.039 1010.61 1025.92C1016.51 1042.11 1024.3 1054.8 1032.82 1069.16C1000.66 1068.27 968.497 1067.15 936.353 1065.78C871.913 1063.3 807.493 1060.21 743.107 1056.54C652.741 1051.32 553.857 1045.43 464.577 1032.41C447.87 1029.82 431.145 1027.01 414.91 1022.22C388.681 980.38 388.781 931.619 397.12 884.854C428.617 891.239 487.406 890.754 519.824 889.568C682.86 883.628 847.194 857.043 1007.16 826.5L1008 826.458L1008.7 827.332ZM362.376 1036.79C358.919 1040.37 340.411 1059.01 339.137 1061.86C340.106 1063.09 340.055 1063.1 341.214 1064.13C348.117 1064.54 350.091 1064.13 355.693 1059.46C361.133 1054.92 367.431 1042.94 362.376 1036.79ZM357.054 1027.99C354.349 1026.63 351.976 1026.47 348.942 1026.74C340.253 1030.69 331.736 1040.63 333.203 1050.7L334.25 1052.05C336.661 1051.54 337.098 1050.33 339.057 1048.25C343.471 1043.71 353.855 1033.52 357.201 1028.91L357.054 1027.99ZM977.124 958.377C793.211 968.546 597.122 982.611 413.511 970.217C417.222 984.615 419.797 993.412 426.54 1006.87C441.303 1010.48 456.252 1013.28 471.32 1015.26C491.387 1018.76 516.423 1021.18 536.86 1023.28C579.492 1027.43 622.187 1030.94 664.926 1033.78C777.027 1041.12 889.24 1046.63 1001.52 1050.3C991.649 1028.07 985.874 1010.67 981.727 986.418C980.854 981.281 978.947 961.789 977.879 958.62L977.124 958.377ZM984.542 849.515C983.732 849.418 983.252 849.279 982.477 849.396C847.632 874.422 710.319 896.154 573.344 904.938C526.243 907.953 458.724 910.448 411.502 905.187C410.556 915.106 407.876 941.997 411.189 951.313C412.779 952.214 412.143 952.069 413.864 952.276C491.754 957.219 569.838 958.418 647.842 955.867C715.748 954.287 783.628 951.625 851.452 947.889C892.998 945.629 936.271 942.218 977.547 940.443C977.533 919.633 977.588 901.166 980.361 880.384C980.992 875.635 985.235 852.662 984.542 849.515ZM833.286 297.648C923.034 293.009 953.431 505.529 955.255 572.07C957.349 648.479 956.739 754.489 906.99 818.348C894.857 833.924 878.799 836.24 860.633 837.044L833.938 838.167C831.449 838.382 828.953 838.548 826.457 838.673C815.987 839.179 798.75 828.635 792.031 821.849C734.587 763.84 716.15 636.381 712.482 557.858C709.244 488.476 714.84 370.933 761.53 316.465C779.946 294.981 804.768 298.721 830.991 297.777L833.286 297.648ZM1151.84 736.715C1152.01 759.522 1164.09 819.699 1181.01 836.718C1181.51 837.224 1182.03 837.723 1182.57 838.201C1184.12 835.435 1185.94 832.441 1187.11 829.529C1191.57 817.62 1193.94 806.265 1195.96 793.738C1193.06 793.717 1189 793.85 1186.21 793.42C1159.74 789.33 1158.06 756.236 1151.84 736.715ZM485.369 391.168C499.414 391.108 511.263 390.61 523.031 399.484C562.141 428.975 579.641 516.752 585.96 562.193C595.141 628.226 599.482 764.685 557.39 819.706C549.888 829.508 540.86 835.997 528.489 837.633L503.764 837.785C489.18 837.854 477.129 838.264 465.022 828.864C425.624 798.252 408.155 707.281 402.184 660.754C393.793 595.364 390.229 462.148 432.136 408.569C439.653 398.957 448.718 392.815 460.932 391.302L485.369 391.168ZM879.588 459.615C872.189 424.495 841.64 314.953 794.34 316.92C762.48 324.474 746.304 380.997 740.604 409.538C722.48 500.251 727.59 598.076 748.321 687.983C755.976 721.201 786.395 822.367 830.929 819.838C861.415 813.37 877.688 760.153 883.513 733.11C902.67 644.189 898.281 548.281 879.588 459.615ZM460.684 409.116C449.237 413.124 442.738 423.224 437.665 433.727C399.714 512.289 413.425 675.277 441.917 755.986C448.772 775.403 462.08 808.539 481.274 817.911C484.351 819.415 487.372 819.865 490.766 819.852C528.109 806.999 535.993 703.475 536.622 670.788C537.884 605.177 531.007 536.812 509.965 474.421C503.19 454.324 485.279 409.367 460.684 409.116ZM499.555 409.095C498.289 409.062 497.022 409.061 495.757 409.091C559.451 488.314 578.162 734.801 519.907 819.804C526.973 819.887 530.344 820.199 536.383 815.929C565.463 788.9 572.853 714.296 574.006 676.401C576.143 606.173 568.42 530.653 543.905 464.539C537.51 447.293 520.267 409.72 499.555 409.095ZM873.723 337.578C863.288 323.815 852.082 314.791 834.326 315.545C902.476 389.944 916.17 544.531 912.987 642.521C911.226 696.73 900.153 774.821 865.506 818.757C874.138 818.611 877.89 818.32 885.419 813.745C917.48 788.602 929.988 722.49 934.287 683.716C944.091 591.242 936.382 494.083 907.552 405.498C899.973 382.209 888.532 357.117 873.723 337.578ZM270.497 649.05C270.244 657.32 271.403 668.479 272.138 676.933C273.82 695.371 275.854 713.783 278.235 732.146C279.501 741.969 282.267 764.929 284.494 773.566C284.896 777.601 286.089 782.834 286.903 786.924C287.041 781.177 286.527 769.268 285.73 763.716C285.531 743.578 281.002 714.504 278.553 694.165C277.235 683.221 273.369 658.729 270.497 649.05ZM1229.56 566.844C1196.04 594.865 1190.37 736.43 1216.87 774.335C1217.58 775.361 1219.6 776.845 1220.84 777.296C1255.11 752.077 1261.01 581.225 1229.56 566.844ZM1195.82 565.588C1164.21 589.637 1154.81 738.524 1184.76 774.204C1186.28 776.006 1190.89 775.784 1193.44 775.86L1195.45 775.473C1195.66 774.447 1187.63 748.659 1186.8 743.196C1178.57 689.535 1180.31 614.642 1206.47 566.105L1195.82 565.588ZM1184.22 510.032C1162.48 530.044 1157.38 592.827 1152.75 621.923L1154.18 621.36C1158.63 600.609 1165.92 564.725 1184.63 551.823C1190.61 547.703 1196.36 547.606 1203.34 548.194C1199.5 535.688 1194.56 518.433 1184.22 510.032ZM280.412 394.646C315.958 393.589 328.697 438.041 292.636 442.601C256.103 442.567 244.517 399.887 280.412 394.646ZM269.058 409.304C263.223 425.531 279.793 434.346 293.668 433.847C293.371 430.043 273.789 414.186 270.252 410.162C269.854 409.876 269.456 409.589 269.058 409.304ZM303.333 428.559C311.21 412.487 292.035 401.887 277.951 403.703C277.86 405.938 300.323 426.876 303.333 428.559ZM826.858 206.163C712.731 217.463 577.424 247.724 472.761 295.219C474.407 299.601 478.037 311.583 481.255 313.61C482.354 313.477 483.365 313.378 484.453 313.162L839.207 222.66C837.363 218.397 833.515 207.407 830 205.903L826.858 206.163ZM666.618 163.958C660.974 163.548 649.887 163.086 644.614 163.885C600.887 167.607 568.313 185.044 539.97 218.719C529.735 231.028 520.93 244.459 513.722 258.752C542.271 248.56 577.237 236.288 606.847 228.909C659.719 214.404 713.453 203.25 767.736 195.513C735.294 179.278 703.212 166.612 666.618 163.958ZM1081.61 201.92C1108.78 198.677 1113.49 247.186 1078.58 256.628C1043.37 257.061 1049.13 207.229 1081.61 201.92ZM1093.77 221.675C1089.31 225.585 1070.81 241.416 1068.13 244.985C1068.94 245.769 1069.52 246.378 1070.41 247.062C1087.75 251.588 1099.19 226.8 1093.77 221.675ZM1088.93 213.484C1087.96 210.658 1083.27 210.583 1080.65 210.771C1071.83 213.967 1062.37 223.732 1063.56 233.674L1064.63 234.834C1066.57 234.429 1067.4 233.281 1068.85 231.881C1073.63 227.654 1085.28 217.837 1088.93 213.484ZM67.2891 161.12C65.9016 147.683 53.8826 137.914 40.4424 139.298C26.9981 140.682 17.2225 152.702 18.6104 166.144C19.9982 179.585 32.024 189.355 45.4678 187.965C58.9073 186.575 68.6764 174.557 67.2891 161.12ZM1394.22 117.899C1388.18 111.482 1379.16 108.808 1370.6 110.897C1357.59 114.074 1349.55 127.116 1352.57 140.16C1355.58 153.204 1368.52 161.4 1381.61 158.55C1390.22 156.674 1397.15 150.314 1399.77 141.899C1402.37 133.484 1400.26 124.317 1394.22 117.899Z" fill="#5E6B4A" stroke="#5E6B4A" stroke-width="7" stroke-linejoin="round"/>
</svg>
